# AST/ASF file generated using VICON BodyLanguage
# -----------------------------------------------
:version 1.10
:name VICON
:units
  mass 1.0
  length 0.45
  angle deg
:documentation
   .ast/.asf automatically generated from VICON data using
   VICON BodyBuilder and BodyLanguage model FoxedUp or BRILLIANT.MOD
:root
   order TX TY TZ RX RY RZ
   axis XYZ
   position 0 0 0  
   orientation 0 0 0 
:bonedata
  begin
     id 1 
     name lhipjoint
     direction 0.682418 -0.694059 0.22932 
     length 2.25561 
     axis 0 0 0  XYZ
  end
  begin
     id 2 
     name lfemur
     direction 0.34202 -0.939693 0  
     length 6.96448  
     axis 0 0 20  XYZ
    dof rx ry rz
    limits (-160.0 20.0)
           (-70.0 70.0)
           (-60.0 70.0)
  end
  begin
     id 3 
     name ltibia
     direction 0.34202 -0.939693 0   
     length 6.88553   
     axis 0 0 20   XYZ
    dof rx
    limits (-10.0 170.0)
  end
  begin
     id 4 
     name lfoot
     direction 0.0723587 -0.198804 0.977364   
     length 1.88518   
     axis -90 7.62852e-016 20   XYZ
    dof rx rz
    limits (-45.0 90.0)
           (-70.0 20.0)
  end
  begin
     id 5 
     name ltoes
     direction 1.53558e-011 -4.21962e-011 1   
     length 0.952124   
     axis -90 7.62852e-016 20   XYZ
    dof rx
    limits (-90.0 20.0)
  end
  begin
     id 6 
     name rhipjoint
     direction -0.657603 -0.71533 0.236348   
     length 2.18854  
     axis 0 0 0  XYZ 
  end
  begin
     id 7 
     name rfemur
     direction -0.34202 -0.939693 0   
     length 6.86686   
     axis 0 0 -20   XYZ
    dof rx ry rz
    limits (-160.0 20.0)
           (-70.0 70.0)
           (-70.0 60.0)
  end
  begin
     id 8 
     name rtibia
     direction -0.34202 -0.939693 0   
     length 6.59503   
     axis 0 0 -20   XYZ
    dof rx
    limits (-10.0 170.0)
 end
 begin
     id 9 
     name rfoot
     direction -0.101977 -0.280179 0.954516   
     length 1.93723  
     axis -90 -7.62852e-016 -20   XYZ
    dof rx rz
    limits (-45.0 90.0)
           (-20.0 70.0)
  end
  begin
     id 10 
     name rtoes
     direction -1.53564e-011 -4.21897e-011 1   
     length 0.970315   
     axis -90 -7.62852e-016 -20   XYZ
    dof rx
    limits (-90.0 20.0)
  end
  begin
     id 11 
     name lowerback
     direction -0.0339559 0.999421 -0.00235966   
     length 1.88543   
     axis 0 0 0   XYZ
    dof rx ry rz
    limits (-20.0 45.0)
           (-30.0 30.0)
           (-30.0 30.0)
  end
  begin
     id 12 
     name upperback
     direction 0.00401003 0.999739 0.0224689   
     length 1.8856   
     axis 0 0 0   XYZ
    dof rx ry rz
    limits (-20.0 45.0)
           (-30.0 30.0)
           (-30.0 30.0)
  end
  begin
     id 13 
     name thorax
     direction 0.0198619 0.999546 0.0226536   
     length 1.88352   
     axis 0 0 0   XYZ
    dof rx ry rz
    limits (-20.0 45.0)
           (-30.0 30.0)
           (-30.0 30.0)
  end
  begin
     id 14 
     name lowerneck
     direction -0.0461848 0.998632 0.0245198   
     length 1.34895   
     axis 0 0 0   XYZ
    dof rx ry rz
    limits (-20.0 45.0)
           (-30.0 30.0)
           (-30.0 30.0)
  end
  begin
     id 15 
     name upperneck
     direction -0.0180627 0.994724 -0.100984   
     length 1.35214   
     axis 0 0 0   XYZ
    dof rx ry rz
    limits (-20.0 45.0)
           (-30.0 30.0)
           (-30.0 30.0)
  end
  begin
     id 16
     name head
     direction -0.00374772 0.999293 -0.037403  
     length 1.3568  
     axis 0 0 0   XYZ
    dof rx ry rz
    limits (-20.0 45.0)
           (-30.0 30.0)
           (-30.0 30.0)
  end
  begin
     id 17 
     name lclavicle
     direction 0.971773 0.191119 0.138311  
     length 2.84954  
     axis 0 0 0   XYZ
    dof ry rz
    limits (-20.0 10.0)
           (0.0 20.0)
  end
  begin
     id 18 
     name lhumerus
     direction 1 -4.4897e-011 -2.43761e-027   
     length 4.40919   
     axis 180 -30 -90   XYZ
    dof rx ry rz
    limits (-60.0 90.0)
           (-90.0 90.0)
           (-90.0 90.0)
  end
  begin
     id 19
     name lradius
     direction 1 -4.4896e-011 -9.1621e-027   
     length 3.03857   
     axis 180 -30 -90   XYZ
    dof rx
    limits (-10.0 170.0)
  end
  begin
     id 20
     name lwrist
     direction 1 -4.4896e-011 -1.41363e-026   
     length 1.51928   
     axis 1.07133e-014 90 90   XYZ
    dof ry
    limits (-180.0 0.0)
 end
  begin
     id 21 
     name lhand
     direction 1 -4.48978e-011 -2.82725e-026   
     length 0.523208   
     axis 1.80403e-014 90 90   XYZ
    dof rx rz
    limits (-90.0 90.0)
           (-45.0 45.0)
  end
  begin
     id 22 
     name lfingers
     direction 1 -4.48977e-011 -5.6545e-026   
     length 0.421824   
     axis 3.60806e-014 90 90   XYZ
    dof rx
    limits (0.0 90.0)
  end
  begin
     id 23
     name lthumb
     direction 0.707107 -6.34962e-011 0.707107   
     length 0.605657   
     axis -90 45 2.85299e-015   XYZ
    dof rx rz
    limits (-45.0 45.0)
           (-45.0 45.0)
  end
  begin
     id 24 
     name rclavicle
     direction -0.957247 0.24311 0.156766   
     length 3.12406  
     axis 0 0 0   XYZ 
    dof ry rz
    limits (-10.0 20.0)
           (-20.0 0.0)
  end
  begin
     id 25 
     name rhumerus
     direction -1 -4.48964e-011 -1.70632e-027  
     length 4.61969   
     axis 180 30 90   XYZ
    dof rx ry rz
    limits (-90.0 60.0)
           (-90.0 90.0)
           (-90.0 90.0)
  end
  begin
     id 26 
     name rradius
     direction -1 -4.48966e-011 -6.60395e-027   
     length 3.09382   
     axis 180 30 90   XYZ
    dof rx
    limits (-10.0 170.0)
  end
  begin
     id 27 
     name rwrist
     direction -1 -4.48963e-011 -1.41363e-026   
     length 1.54691   
     axis 1.07133e-014 -90 -90   XYZ
    dof ry
    limits (-180.0 0.0)
  end
  begin
     id 28
     name rhand
     direction -1 -4.49013e-011 -2.82725e-026   
     length 0.500896   
     axis 1.80403e-014 -90 -90   XYZ
    dof rx rz
    limits (-90.0 90.0)
           (-45.0 45.0)
  end
  begin
     id 29
     name rfingers
     direction -1 -4.48902e-011 -5.6545e-026   
     length 0.403835   
     axis 3.60806e-014 -90 -90   XYZ
    dof rx
    limits (0.0 90.0)
  end
  begin
     id 30
     name rthumb
     direction -0.707107 -6.34953e-011 0.707107   
     length 0.579829   
     axis -90 -45 -2.85299e-015   XYZ
    dof rx rz
    limits (-45.0 45.0)
           (-45.0 45.0)
  end
:hierarchy
  begin
    root lhipjoint rhipjoint lowerback
    lhipjoint lfemur
    lfemur ltibia
    ltibia lfoot
    lfoot ltoes
    rhipjoint rfemur
    rfemur rtibia
    rtibia rfoot
    rfoot rtoes
    lowerback upperback
    upperback thorax
    thorax lowerneck lclavicle rclavicle
    lowerneck upperneck
    upperneck head
    lclavicle lhumerus
    lhumerus lradius
    lradius lwrist
    lwrist lhand lthumb
    lhand lfingers
    rclavicle rhumerus
    rhumerus rradius
    rradius rwrist
    rwrist rhand rthumb
    rhand rfingers
  end

#!OML:ASF E:\madness\Project 1\Capture day 1\Session 1\Female1.ASF
:FULLY-SPECIFIED
:DEGREES
910
root 28.3054 14.9419 -3.91148 -297.844 -82.2001 315.063
lowerback -0.642061 5.89461 -10.5809
upperback 3.30631 8.07098 -2.24985
thorax 2.70228 3.72662 3.66155
lowerneck 10.8452 -7.08111 -5.42231
upperneck -8.4654 -8.53483 25.4181
head -2.93461 -5.68306 9.38492
rclavicle 1.90833e-014 2.54444e-014
rhumerus -81.6531 0.46061 -52.3709
rradius 58.5766
rwrist -12.6512
rhand -25.4241 -33.4393
rfingers 7.12502
rthumb 1.10196 -63.4162
lclavicle 1.90833e-014 2.54444e-014
lhumerus -57.1023 -16.4301 37.1111
lradius 114.741
lwrist -15.5267
lhand -61.7792 4.56242
lfingers 7.12502
lthumb -33.844 31.3807
rfemur -12.5049 -1.84088 29.2934
rtibia 33.7512
rfoot -37.0384 -23.5729
rtoes 7.65148
lfemur -51.6484 -16.0823 13.2581
ltibia 40.0115
lfoot -18.7463 0.505762
ltoes -23.5184
911
root 28.3541 14.9224 -3.85541 -300.785 -81.2789 318.652
lowerback -0.379121 5.77295 -9.68434
upperback 3.18985 7.85584 -2.22221
thorax 2.56561 3.65828 3.18172
lowerneck 11.4612 -7.27662 -5.22763
upperneck -8.63841 -8.73328 25.1008
head -3.08567 -5.80774 9.29184
rclavicle -3.18055e-015 5.56597e-014
rhumerus -81.2365 0.601462 -52.7639
rradius 60.2286
rwrist -12.6422
rhand -25.1834 -33.2417
rfingers 7.12502
rthumb 1.33444 -63.2173
lclavicle -3.18055e-015 5.56597e-014
lhumerus -56.8553 -16.1487 36.8718
lradius 114.57
lwrist -15.7913
lhand -61.7223 6.34474
lfingers 7.12502
lthumb -33.7899 33.1749
rfemur -13.6776 -2.5346 29.7172
rtibia 34.0907
rfoot -37.0943 -23.3498
rtoes 9.6347
lfemur -53.0179 -15.7763 13.679
ltibia 39.7169
lfoot -18.5826 0.15417
ltoes -23.8302
912
root 28.3879 14.9164 -3.82996 -302.643 -80.471 320.546
lowerback 0.0661753 5.67972 -9.4479
upperback 3.39786 7.68174 -1.90581
thorax 2.53962 3.57081 3.34595
lowerneck 11.5437 -7.39375 -5.26081
upperneck -8.52333 -8.92237 24.7599
head -3.0488 -5.8692 9.18043
rclavicle 4.6118e-014 -8.82604e-014
rhumerus -80.0809 0.872095 -52.915
rradius 61.777
rwrist -12.3471
rhand -24.5354 -33.6796
rfingers 7.12502
rthumb 1.96024 -63.6503
lclavicle 4.6118e-014 -8.82604e-014
lhumerus -56.73 -15.409 36.7631
lradius 114.317
lwrist -16.2738
lhand -61.2351 6.0587
lfingers 7.12502
lthumb -33.3269 32.9894
rfemur -13.8693 -2.81633 30.213
rtibia 34.1103
rfoot -37.2965 -23.401
rtoes 10.8064
lfemur -53.4971 -15.7507 14.0227
ltibia 39.4315
lfoot -18.7139 0.0398882
ltoes -24.6297
913
root 28.3927 14.918 -3.81784 -303.238 -79.8744 321.011
lowerback 0.218763 5.61352 -9.56342
upperback 3.68672 7.58776 -1.49804
thorax 2.70047 3.50014 3.82816
lowerneck 11.4375 -7.4424 -5.41321
upperneck -8.13489 -9.08962 24.3569
head -2.90001 -5.88502 9.04254
rclavicle -4.73108e-014 3.97569e-015
rhumerus -78.5156 1.2991 -52.982
rradius 62.8829
rwrist -11.8492
rhand -24.1415 -33.633
rfingers 7.12502
rthumb 2.34071 -63.5999
lclavicle -4.73108e-014 3.97569e-015
lhumerus -56.7591 -14.6782 36.716
lradius 114.113
lwrist -16.6581
lhand -61.145 5.33127
lfingers 7.12502
lthumb -33.2412 32.2803
rfemur -13.6317 -2.93349 30.6601
rtibia 33.9468
rfoot -37.4684 -23.539
rtoes 10.7593
lfemur -53.5035 -15.5295 14.1455
ltibia 39.2318
lfoot -19.0311 -0.342626
ltoes -24.8975
914
root 28.406 14.9183 -3.79928 -303.451 -79.0913 320.976
lowerback 0.66132 5.60592 -9.15243
upperback 3.77914 7.52107 -1.23059
thorax 2.56907 3.48 3.84141
lowerneck 11.6641 -7.52143 -5.31197
upperneck -7.65694 -9.26937 24.0195
head -2.79459 -5.93571 8.90438
rclavicle 1.06151e-013 -3.89618e-014
rhumerus -77.2879 1.61868 -53.201
rradius 63.9016
rwrist -11.3268
rhand -24.2185 -33.3915
rfingers 7.12502
rthumb 2.26629 -63.3592
lclavicle 1.06151e-013 -3.89618e-014
lhumerus -56.7169 -14.5278 36.462
lradius 113.906
lwrist -16.6746
lhand -61.2626 4.29287
lfingers 7.12502
lthumb -33.353 31.2179
rfemur -13.2143 -3.22711 31.2657
rtibia 33.576
rfoot -37.4197 -23.6962
rtoes 10.1952
lfemur -53.4356 -15.235 14.3531
ltibia 39.0715
lfoot -19.2951 -1.04964
ltoes -24.53
915
root 28.4326 14.9291 -3.76877 -303.649 -78.7014 321.189
lowerback 0.862554 5.79189 -8.77611
upperback 3.69201 7.73831 -1.30959
thorax 2.39228 3.61042 3.52599
lowerneck 12.1527 -7.73914 -4.76889
upperneck -7.27285 -9.54764 23.7263
head -2.77028 -6.07337 8.73261
rclavicle -5.08889e-014 -7.15625e-015
rhumerus -76.6343 1.52113 -53.4708
rradius 65.1627
rwrist -10.9949
rhand -24.45 -33.0342
rfingers 7.12502
rthumb 2.04276 -63.0041
lclavicle -5.08889e-014 -7.15625e-015
lhumerus -56.1281 -14.9949 36.0527
lradius 113.748
lwrist -15.9839
lhand -61.0217 3.01551
lfingers 7.12502
lthumb -33.124 29.9895
rfemur -13.1134 -3.58857 31.3951
rtibia 33.1456
rfoot -37.1035 -23.662
rtoes 9.47399
lfemur -53.5303 -15.0276 14.3535
ltibia 38.9512
lfoot -19.3686 -1.21365
ltoes -24.4453
916
root 28.4645 14.9381 -3.74259 -303.095 -78.597 320.509
lowerback 1.12226 6.03485 -8.66383
upperback 3.78853 8.03199 -1.31101
thorax 2.32645 3.75798 3.43275
lowerneck 11.9882 -7.94129 -4.37545
upperneck -6.70916 -9.87447 23.2467
head -2.57378 -6.17129 8.47348
rclavicle 1.59028e-014 -1.51076e-014
rhumerus -75.3701 1.46576 -53.6287
rradius 66.0256
rwrist -10.9012
rhand -24.6932 -32.2989
rfingers 7.12502
rthumb 1.80791 -62.271
lclavicle 1.59028e-014 -1.51076e-014
lhumerus -55.2683 -14.8814 35.8696
lradius 113.487
lwrist -15.0996
lhand -60.6061 2.48968
lfingers 7.12502
lthumb -32.7287 29.5467
rfemur -12.9475 -3.5575 31.4172
rtibia 32.8165
rfoot -36.8806 -23.6355
rtoes 9.0881
lfemur -53.3772 -14.8843 14.3257
ltibia 38.8054
lfoot -19.3767 -0.832961
ltoes -24.8088
917
root 28.4767 14.9456 -3.71402 -302.754 -78.1805 320.328
lowerback 0.703115 5.62119 -8.89012
upperback 4.13913 7.54361 -0.709327
thorax 2.88143 3.46716 4.25311
lowerneck 11.6527 -7.68633 -5.66138
upperneck -5.95582 -9.84831 23.2679
head -2.22695 -6.05767 8.63541
rclavicle -9.54166e-015 -7.95139e-016
rhumerus -72.4314 2.80184 -53.5475
rradius 66.6036
rwrist -11.2149
rhand -24.4504 -31.6949
rfingers 7.12502
rthumb 2.04236 -61.6649
lclavicle -9.54166e-015 -7.95139e-016
lhumerus -55.7406 -13.0532 36.4055
lradius 113.166
lwrist -14.7721
lhand -60.514 2.88868
lfingers 7.12502
lthumb -32.641 29.964
rfemur -13.0387 -3.83901 31.6783
rtibia 32.5504
rfoot -36.6546 -23.6789
rtoes 7.78639
lfemur -53.6016 -14.8909 14.6891
ltibia 38.6032
lfoot -19.2593 -0.139478
ltoes -25.0734
918
root 28.5018 14.956 -3.68635 -302.857 -78.1826 320.393
lowerback 0.672212 5.74937 -9.07918
upperback 4.37963 7.72542 -0.602856
thorax 3.0908 3.53033 4.47864
lowerneck 10.9571 -7.79149 -5.65625
upperneck -5.5147 -10.0732 22.9758
head -1.95909 -6.08826 8.47367
rclavicle -4.01545e-014 6.99722e-014
rhumerus -70.8384 2.91006 -53.5189
rradius 67.789
rwrist -11.8208
rhand -24.8704 -31.8256
rfingers 7.12502
rthumb 1.63673 -61.7991
lclavicle -4.01545e-014 6.99722e-014
lhumerus -55.1176 -12.5067 36.5202
lradius 112.9
lwrist -14.5737
lhand -60.5148 3.6989
lfingers 7.12502
lthumb -32.6418 30.774
rfemur -13.006 -4.0766 31.5256
rtibia 32.3134
rfoot -36.2138 -23.7767
rtoes 6.20479
lfemur -53.4949 -14.9966 14.6314
ltibia 38.3019
lfoot -18.8304 0.543609
ltoes -24.7508
919
root 28.5305 14.97 -3.66273 -302.583 -78.0483 320.219
lowerback 0.686533 6.28422 -8.75498
upperback 4.36126 8.43198 -0.936691
thorax 3.05684 3.89714 3.94365
lowerneck 10.8918 -8.3701 -4.63937
upperneck -5.60863 -10.7072 22.9759
head -1.93875 -6.42952 8.30572
rclavicle 2.50469e-014 -3.97569e-014
rhumerus -70.5998 1.86957 -53.8098
rradius 69.27
rwrist -12.5051
rhand -24.6504 -32.8922
rfingers 7.12502
rthumb 1.84921 -62.8639
lclavicle 2.50469e-014 -3.97569e-014
lhumerus -53.3676 -13.3941 36.0138
lradius 112.813
lwrist -14.2676
lhand -60.2454 5.14303
lfingers 7.12502
lthumb -32.3855 32.2709
rfemur -13.1646 -4.25089 31.5733
rtibia 32.086
rfoot -35.8509 -23.7521
rtoes 5.83588
lfemur -53.5273 -14.9091 14.7079
ltibia 37.9399
lfoot -18.3217 0.787398
ltoes -23.9649
920
root 28.5638 14.9946 -3.64428 -302.194 -77.8871 319.867
lowerback 0.789667 6.37876 -8.65123
upperback 4.40519 8.54531 -0.962516
thorax 3.04828 3.95539 3.84982
lowerneck 10.8853 -8.4638 -4.47652
upperneck -5.61674 -10.8102 22.9245
head -1.93729 -6.4816 8.26224
rclavicle -1.02175e-013 1.90833e-014
rhumerus -69.2418 2.18566 -54.1947
rradius 70.4716
rwrist -13.3282
rhand -24.8708 -33.1374
rfingers 7.12502
rthumb 1.63633 -63.1109
lclavicle -1.02175e-013 1.90833e-014
lhumerus -52.93 -13.3857 35.7654
lradius 112.98
lwrist -14.0988
lhand -59.9172 6.41749
lfingers 7.12502
lthumb -32.073 33.6088
rfemur -13.301 -4.4511 31.6834
rtibia 31.9596
rfoot -35.5643 -23.6528
rtoes 5.78974
lfemur -53.468 -14.8047 14.7802
ltibia 37.5275
lfoot -17.8635 1.21946
ltoes -24.0689
